<svg xmlns="http://www.w3.org/2000/svg" version="1.1" xmlns:xlink="http://www.w3.org/1999/xlink" xmlns:svgjs="http://svgjs.dev/svgjs" width="1000" height="1000" viewBox="0 0 1000 1000"><rect width="1000" height="1000" fill="#ffffff"></rect><g transform="matrix(0.7,0,0,0.7,149.70141218446082,123.46415751672583)"><svg viewBox="0 0 232 248" data-background-color="#ffffff" preserveAspectRatio="xMidYMid meet" height="1068" width="1000" xmlns="http://www.w3.org/2000/svg" xmlns:xlink="http://www.w3.org/1999/xlink"><g id="tight-bounds" transform="matrix(1,0,0,1,0.09896053315011955,0.9106402691760138)"><svg viewBox="0 0 231.80207773867363 247.2" height="247.2" width="231.80207773867363"><g><svg viewBox="0 0 395.52 421.7932166692038" height="247.2" width="231.80207773867363"><g transform="matrix(1,0,0,1,0,251.8256873097597)"><svg viewBox="0 0 395.52 169.9675293594441" height="169.9675293594441" width="395.52"><g id="textblocktransform"><svg viewBox="0 0 395.52 169.9675293594441" height="169.9675293594441" width="395.52" id="textblock"><g><svg viewBox="0 0 395.52 99.09668371073776" height="99.09668371073776" width="395.52"><g transform="matrix(1,0,0,1,0,0)"><svg width="395.52" viewBox="3.3499999046325684 -34.29999923706055 136.88999938964844 34.29999923706055" height="99.09668371073776" data-palette-color="#303030"><path d="M3.35 0L3.35-34.3 10.6-34.3 10.6-6.3 29.1-6.3 29.1 0 3.35 0ZM33.9 0L33.9-34.3 41.15-34.3 41.15 0 33.9 0ZM57.05 0L44.65-34.3 52.5-34.3 58.95-15.5Q59.5-13.9 61.2-8.4L61.2-8.4 61.45-8.4Q63.05-13.9 63.59-15.5L63.59-15.5 70-34.3 77.55-34.3 65.15 0 57.05 0ZM81.14 0L81.14-34.3 108.09-34.3 108.09-28.15 88.39-28.15 88.39-20.6 105.89-20.6 105.89-14.45 88.39-14.45 88.39-6.15 108.39-6.15 108.39 0 81.14 0ZM114.49 0L114.49-34.3 121.74-34.3 121.74-6.3 140.24-6.3 140.24 0 114.49 0Z" opacity="1" transform="matrix(1,0,0,1,0,0)" fill="#303030" class="undefined-text-0" data-fill-palette-color="primary" id="text-0"></path></svg></g></svg></g><g transform="matrix(1,0,0,1,0,122.49103241443389)"><svg viewBox="0 0 395.52 47.47649694501019" height="47.47649694501019" width="395.52"><g transform="matrix(1,0,0,1,0,0)"><svg width="395.52" viewBox="2.5 -36.29999923706055 392.75 47.150001525878906" height="47.47649694501019" data-palette-color="#303030"><path d="M8.5 0.2Q5.85 0.2 4.45-1.38 3.05-2.95 3.05-5.45L3.05-5.45 3.05-24.9 8.75-24.9 8.75-5.95Q8.75-4.8 9.1-4.4 9.45-4 10.15-4L10.15-4Q10.35-4 10.58-4 10.8-4 11-4.05L11-4.05Q11.2-4.05 11.45-4.1L11.45-4.1 12.05-0.5Q11.7-0.3 11.15-0.15L11.15-0.15Q10.7 0 10.03 0.1 9.35 0.2 8.5 0.2L8.5 0.2ZM6-36Q7.6-36 8.45-35.05 9.3-34.1 9.3-32.6L9.3-32.6Q9.3-31.1 8.43-30.1 7.55-29.1 5.85-29.1L5.85-29.1Q4.25-29.1 3.38-30.08 2.5-31.05 2.5-32.45L2.5-32.45Q2.5-34 3.38-35 4.25-36 6-36L6-36ZM38.55-1.4L34.1 0.4Q34 0.35 33.65-0.08 33.3-0.5 32.87-1.25 32.45-2 32.05-3.13 31.65-4.25 31.55-5.75L31.55-5.75Q30.7-2.75 28.82-1.23 26.95 0.3 23.75 0.3L23.75 0.3Q21.4 0.3 19.67-0.58 17.95-1.45 16.8-3.08 15.65-4.7 15.1-7 14.55-9.3 14.55-12.1L14.55-12.1Q14.55-14.95 15.42-17.38 16.3-19.8 17.87-21.55 19.45-23.3 21.65-24.3 23.85-25.3 26.5-25.3L26.5-25.3Q27.4-25.3 28.42-25.2 29.45-25.1 30.45-24.95L30.45-24.95 30.45-36.25 36.15-35.25 36.15-12.05Q36.15-9.05 36.5-7.08 36.85-5.1 37.3-3.88 37.75-2.65 38.12-2.1 38.5-1.55 38.55-1.4L38.55-1.4ZM24.7-3.75Q25.95-3.75 27-4.6 28.05-5.45 28.82-6.83 29.6-8.2 30.02-9.95 30.45-11.7 30.45-13.55L30.45-13.55 30.45-20.75Q29.95-20.9 28.95-21.1 27.95-21.3 27.15-21.3L27.15-21.3Q25.25-21.3 24.02-20.65 22.8-20 22.05-18.85 21.3-17.7 21-16.1 20.7-14.5 20.7-12.6L20.7-12.6Q20.7-10.85 20.8-9.25 20.9-7.65 21.32-6.43 21.75-5.2 22.55-4.48 23.35-3.75 24.7-3.75L24.7-3.75ZM41.35-11.85Q41.35-15.2 42.27-17.75 43.2-20.3 44.82-22.03 46.45-23.75 48.65-24.63 50.85-25.5 53.4-25.5L53.4-25.5Q55.65-25.5 57.22-24.95 58.8-24.4 59.8-23.45 60.8-22.5 61.27-21.2 61.75-19.9 61.75-18.4L61.75-18.4Q61.75-16.6 60.75-14.98 59.75-13.35 57.87-12.13 56-10.9 53.35-10.18 50.7-9.45 47.4-9.4L47.4-9.4Q47.55-8.25 47.87-7.23 48.2-6.2 48.82-5.43 49.45-4.65 50.45-4.2 51.45-3.75 52.95-3.75L52.95-3.75Q54.05-3.75 55.3-4 56.55-4.25 57.6-4.6L57.6-4.6Q58.85-5 60.05-5.5L60.05-5.5 61.55-1.95Q60.25-1.3 58.75-0.8L58.75-0.8Q57.45-0.35 55.75 0 54.05 0.35 52.15 0.35L52.15 0.35Q49.25 0.35 47.2-0.53 45.15-1.4 43.85-3 42.55-4.6 41.95-6.85 41.35-9.1 41.35-11.85L41.35-11.85ZM52.95-21.6Q51.3-21.6 50.22-20.83 49.15-20.05 48.5-18.82 47.85-17.6 47.57-16.07 47.3-14.55 47.25-13L47.25-13Q49.65-13.1 51.32-13.63 53-14.15 54.05-14.93 55.1-15.7 55.57-16.6 56.05-17.5 56.05-18.4L56.05-18.4Q56.05-19.85 55.2-20.73 54.35-21.6 52.95-21.6L52.95-21.6ZM86.59-23.85L86.59-12.05Q86.59-9.05 86.97-7.03 87.34-5 87.79-3.75L87.79-3.75Q88.34-2.25 88.99-1.4L88.99-1.4 84.54 0.4Q83.89-0.25 83.34-1.15L83.34-1.15Q82.89-1.95 82.49-3.08 82.09-4.2 81.99-5.75L81.99-5.75Q81.14-2.75 79.27-1.23 77.39 0.3 74.19 0.3L74.19 0.3Q71.84 0.3 70.12-0.58 68.39-1.45 67.24-3.08 66.09-4.7 65.54-7 64.99-9.3 64.99-12.1L64.99-12.1Q64.99-14.95 65.87-17.38 66.74-19.8 68.32-21.55 69.89-23.3 72.09-24.3 74.29-25.3 76.94-25.3L76.94-25.3Q78.44-25.3 80.07-25.08 81.69-24.85 83.09-24.6 84.49-24.35 85.47-24.13 86.44-23.9 86.59-23.85L86.59-23.85ZM75.14-3.7Q76.39-3.7 77.44-4.55 78.49-5.4 79.27-6.78 80.04-8.15 80.47-9.93 80.89-11.7 80.89-13.55L80.89-13.55 80.89-20.75Q80.39-20.9 79.39-21.1 78.39-21.3 77.59-21.3L77.59-21.3Q75.69-21.3 74.47-20.65 73.24-20 72.49-18.85 71.74-17.7 71.44-16.1 71.14-14.5 71.14-12.6L71.14-12.6Q71.14-10.85 71.24-9.25 71.34-7.65 71.77-6.4 72.19-5.15 72.99-4.42 73.79-3.7 75.14-3.7L75.14-3.7ZM98.59 0.2Q95.74 0.2 94.39-1.38 93.04-2.95 93.04-5.4L93.04-5.4 93.04-35.25 98.74-36.3 98.74-5.95Q98.74-4.8 99.19-4.35 99.64-3.9 100.49-3.9L100.49-3.9Q100.99-3.9 101.47-3.95 101.94-4 102.34-4.1L102.34-4.1Q102.79-4.2 103.14-4.3L103.14-4.3 103.84-0.7Q103.19-0.45 102.39-0.25L102.39-0.25Q101.69-0.05 100.74 0.08 99.79 0.2 98.59 0.2L98.59 0.2ZM113.09 0.2Q110.44 0.2 109.04-1.38 107.64-2.95 107.64-5.45L107.64-5.45 107.64-24.9 113.34-24.9 113.34-5.95Q113.34-4.8 113.69-4.4 114.04-4 114.74-4L114.74-4Q114.94-4 115.16-4 115.39-4 115.59-4.05L115.59-4.05Q115.79-4.05 116.04-4.1L116.04-4.1 116.64-0.5Q116.29-0.3 115.74-0.15L115.74-0.15Q115.29 0 114.61 0.1 113.94 0.2 113.09 0.2L113.09 0.2ZM110.59-36Q112.19-36 113.04-35.05 113.89-34.1 113.89-32.6L113.89-32.6Q113.89-31.1 113.01-30.1 112.14-29.1 110.44-29.1L110.44-29.1Q108.84-29.1 107.96-30.08 107.09-31.05 107.09-32.45L107.09-32.45Q107.09-34 107.96-35 108.84-36 110.59-36L110.59-36ZM137.03 0L118.89 0 118.89-3.4 129.94-20.9Q127.39-20.75 124.89-20.75L124.89-20.75 119.98-20.75 119.29-24.9 136.59-24.9 136.59-21.5 125.69-4Q127.94-4.15 130.19-4.15L130.19-4.15 137.03-4.15 137.03 0ZM139.53-11.85Q139.53-15.2 140.46-17.75 141.38-20.3 143.01-22.03 144.63-23.75 146.83-24.63 149.03-25.5 151.58-25.5L151.58-25.5Q153.83-25.5 155.41-24.95 156.98-24.4 157.98-23.45 158.98-22.5 159.46-21.2 159.93-19.9 159.93-18.4L159.93-18.4Q159.93-16.6 158.93-14.98 157.93-13.35 156.06-12.13 154.18-10.9 151.53-10.18 148.88-9.45 145.58-9.4L145.58-9.4Q145.73-8.25 146.06-7.23 146.38-6.2 147.01-5.43 147.63-4.65 148.63-4.2 149.63-3.75 151.13-3.75L151.13-3.75Q152.23-3.75 153.48-4 154.73-4.25 155.78-4.6L155.78-4.6Q157.03-5 158.23-5.5L158.23-5.5 159.73-1.95Q158.43-1.3 156.93-0.8L156.93-0.8Q155.63-0.35 153.93 0 152.23 0.35 150.33 0.35L150.33 0.35Q147.43 0.35 145.38-0.53 143.33-1.4 142.03-3 140.73-4.6 140.13-6.85 139.53-9.1 139.53-11.85L139.53-11.85ZM151.13-21.6Q149.48-21.6 148.41-20.83 147.33-20.05 146.68-18.82 146.03-17.6 145.76-16.07 145.48-14.55 145.43-13L145.43-13Q147.83-13.1 149.51-13.63 151.18-14.15 152.23-14.93 153.28-15.7 153.76-16.6 154.23-17.5 154.23-18.4L154.23-18.4Q154.23-19.85 153.38-20.73 152.53-21.6 151.13-21.6L151.13-21.6ZM198.03-24.9L197.78-10.1Q197.78-8.6 198-7.35 198.23-6.1 198.5-4.88 198.78-3.65 199.03-2.4 199.28-1.15 199.28 0.35L199.28 0.35Q199.28 5.65 196.58 8.25 193.88 10.85 189.28 10.85L189.28 10.85Q187.78 10.85 186.28 10.58 184.78 10.3 183.5 9.95 182.23 9.6 181.33 9.25 180.43 8.9 180.13 8.75L180.13 8.75 181.53 4.4Q182.23 4.7 183.1 5.03 183.98 5.35 184.9 5.65 185.83 5.95 186.83 6.15 187.83 6.35 188.78 6.35L188.78 6.35Q191.58 6.35 192.83 4.67 194.08 3 194.08 0.35L194.08 0.35Q194.08-2.05 193.08-4.6L193.08-4.6Q191.68-1.95 189.35-0.83 187.03 0.3 184.48 0.3L184.48 0.3Q180.53 0.3 178.85-2 177.18-4.3 177.18-8.3L177.18-8.3 177.18-24.9 182.88-24.9 182.88-8.45Q182.88-6.35 183.63-5.15 184.38-3.95 186.18-3.95L186.18-3.95Q187.13-3.95 188.2-4.5 189.28-5.05 190.15-6.03 191.03-7 191.6-8.38 192.18-9.75 192.18-11.35L192.18-11.35 192.18-24.9 198.03-24.9ZM214.23-25.5Q219.98-25.5 222.58-22.1 225.18-18.7 225.18-12.75L225.18-12.75Q225.18-9.95 224.48-7.53 223.78-5.1 222.35-3.33 220.93-1.55 218.78-0.53 216.63 0.5 213.78 0.5L213.78 0.5Q210.93 0.5 208.85-0.38 206.78-1.25 205.43-2.9 204.08-4.55 203.45-6.9 202.83-9.25 202.83-12.2L202.83-12.2Q202.83-15.05 203.53-17.48 204.23-19.9 205.65-21.68 207.08-23.45 209.23-24.48 211.38-25.5 214.23-25.5L214.23-25.5ZM213.73-21.3Q212.28-21.3 211.35-20.65 210.43-20 209.9-18.82 209.38-17.65 209.18-16.07 208.98-14.5 208.98-12.7L208.98-12.7Q208.98-10.85 209.2-9.2 209.43-7.55 210.03-6.33 210.63-5.1 211.65-4.4 212.68-3.7 214.28-3.7L214.28-3.7Q215.73-3.7 216.65-4.35 217.58-5 218.1-6.18 218.63-7.35 218.83-8.9 219.03-10.45 219.03-12.25L219.03-12.25Q219.03-14.1 218.8-15.75 218.58-17.4 217.98-18.65 217.38-19.9 216.35-20.6 215.33-21.3 213.73-21.3L213.73-21.3ZM244.97-12.7L244.97-24.9 250.67-24.9 250.67-12.05Q250.67-9.05 251.05-7.03 251.42-5 251.87-3.75L251.87-3.75Q252.42-2.25 253.07-1.4L253.07-1.4 248.62 0.4Q248.02-0.15 247.52-1L247.52-1Q247.12-1.7 246.7-2.73 246.27-3.75 246.12-5.15L246.12-5.15Q244.77-2.2 242.32-0.95 239.87 0.3 237.22 0.3L237.22 0.3Q233.27 0.3 231.6-2 229.92-4.3 229.92-8.3L229.92-8.3 229.92-24.9 235.62-24.9 235.62-8.4Q235.62-6.3 236.37-5.1 237.12-3.9 238.92-3.9L238.92-3.9Q240.02-3.9 241.1-4.53 242.17-5.15 243.05-6.3 243.92-7.45 244.45-9.08 244.97-10.7 244.97-12.7L244.97-12.7ZM268.77-19.7Q267.87-19.7 266.97-19.25 266.07-18.8 265.37-18.03 264.67-17.25 264.22-16.15 263.77-15.05 263.77-13.7L263.77-13.7 263.77 0 258.07 0 258.07-12.6Q258.07-15.6 257.67-17.63 257.27-19.65 256.82-20.9L256.82-20.9Q256.27-22.35 255.62-23.25L255.62-23.25 260.12-25.05Q260.57-24.5 261.07-23.7L261.07-23.7Q261.47-23 261.87-22.05 262.27-21.1 262.52-19.8L262.52-19.8Q263.52-22.7 265.42-23.98 267.32-25.25 269.72-25.25L269.72-25.25Q270.87-25.25 271.87-24.98 272.87-24.7 272.82-24.7L272.82-24.7 271.22-19.15Q271.27-19.15 270.64-19.43 270.02-19.7 268.77-19.7L268.77-19.7ZM299.96-19.7Q299.06-19.7 298.17-19.25 297.26-18.8 296.56-18.03 295.87-17.25 295.42-16.15 294.96-15.05 294.96-13.7L294.96-13.7 294.96 0 289.26 0 289.26-12.6Q289.26-15.6 288.87-17.63 288.46-19.65 288.01-20.9L288.01-20.9Q287.46-22.35 286.81-23.25L286.81-23.25 291.31-25.05Q291.76-24.5 292.26-23.7L292.26-23.7Q292.67-23 293.06-22.05 293.46-21.1 293.71-19.8L293.71-19.8Q294.71-22.7 296.62-23.98 298.51-25.25 300.92-25.25L300.92-25.25Q302.06-25.25 303.06-24.98 304.06-24.7 304.01-24.7L304.01-24.7 302.42-19.15Q302.46-19.15 301.84-19.43 301.21-19.7 299.96-19.7L299.96-19.7ZM315.66-25.5Q321.41-25.5 324.01-22.1 326.61-18.7 326.61-12.75L326.61-12.75Q326.61-9.95 325.91-7.53 325.21-5.1 323.79-3.33 322.36-1.55 320.21-0.53 318.06 0.5 315.21 0.5L315.21 0.5Q312.36 0.5 310.29-0.38 308.21-1.25 306.86-2.9 305.51-4.55 304.89-6.9 304.26-9.25 304.26-12.2L304.26-12.2Q304.26-15.05 304.96-17.48 305.66-19.9 307.09-21.68 308.51-23.45 310.66-24.48 312.81-25.5 315.66-25.5L315.66-25.5ZM315.16-21.3Q313.71-21.3 312.79-20.65 311.86-20 311.34-18.82 310.81-17.65 310.61-16.07 310.41-14.5 310.41-12.7L310.41-12.7Q310.41-10.85 310.64-9.2 310.86-7.55 311.46-6.33 312.06-5.1 313.09-4.4 314.11-3.7 315.71-3.7L315.71-3.7Q317.16-3.7 318.09-4.35 319.01-5 319.54-6.18 320.06-7.35 320.26-8.9 320.46-10.45 320.46-12.25L320.46-12.25Q320.46-14.1 320.24-15.75 320.01-17.4 319.41-18.65 318.81-19.9 317.79-20.6 316.76-21.3 315.16-21.3L315.16-21.3ZM346.41-12.7L346.41-24.9 352.11-24.9 352.11-12.05Q352.11-9.05 352.49-7.03 352.86-5 353.31-3.75L353.31-3.75Q353.86-2.25 354.51-1.4L354.51-1.4 350.06 0.4Q349.46-0.15 348.96-1L348.96-1Q348.56-1.7 348.13-2.73 347.71-3.75 347.56-5.15L347.56-5.15Q346.21-2.2 343.76-0.95 341.31 0.3 338.66 0.3L338.66 0.3Q334.71 0.3 333.04-2 331.36-4.3 331.36-8.3L331.36-8.3 331.36-24.9 337.06-24.9 337.06-8.4Q337.06-6.3 337.81-5.1 338.56-3.9 340.36-3.9L340.36-3.9Q341.46-3.9 342.54-4.53 343.61-5.15 344.49-6.3 345.36-7.45 345.88-9.08 346.41-10.7 346.41-12.7L346.41-12.7ZM356.31-20.85L356.31-24.9 360.81-24.9 361.81-30.75 366.51-31.8 366.51-24.9 372.66-24.9 371.96-20.85 366.51-20.85 366.51-6.05Q366.51-4.75 367.21-4.38 367.91-4 368.76-4L368.76-4Q369.46-4 370.16-4.1 370.86-4.2 371.41-4.35L371.41-4.35Q372.06-4.5 372.66-4.7L372.66-4.7 373.61-0.95 373.16-0.8Q372.71-0.6 371.83-0.38 370.96-0.15 369.78 0.03 368.61 0.2 367.21 0.2L367.21 0.2Q365.81 0.2 364.63-0.1 363.46-0.4 362.61-1.07 361.76-1.75 361.28-2.8 360.81-3.85 360.81-5.4L360.81-5.4 360.81-20.85 356.31-20.85ZM374.86-11.85Q374.86-15.2 375.78-17.75 376.71-20.3 378.33-22.03 379.96-23.75 382.16-24.63 384.36-25.5 386.91-25.5L386.91-25.5Q389.16-25.5 390.73-24.95 392.31-24.4 393.31-23.45 394.31-22.5 394.78-21.2 395.25-19.9 395.25-18.4L395.25-18.4Q395.25-16.6 394.25-14.98 393.25-13.35 391.38-12.13 389.5-10.9 386.86-10.18 384.21-9.45 380.91-9.4L380.91-9.4Q381.06-8.25 381.38-7.23 381.71-6.2 382.33-5.43 382.96-4.65 383.96-4.2 384.96-3.75 386.46-3.75L386.46-3.75Q387.56-3.75 388.81-4 390.06-4.25 391.11-4.6L391.11-4.6Q392.36-5 393.56-5.5L393.56-5.5 395.06-1.95Q393.75-1.3 392.25-0.8L392.25-0.8Q390.96-0.35 389.25 0 387.56 0.35 385.66 0.35L385.66 0.35Q382.75 0.35 380.71-0.53 378.66-1.4 377.36-3 376.06-4.6 375.46-6.85 374.86-9.1 374.86-11.85L374.86-11.85ZM386.46-21.6Q384.81-21.6 383.73-20.83 382.66-20.05 382-18.82 381.36-17.6 381.08-16.07 380.81-14.55 380.75-13L380.75-13Q383.16-13.1 384.83-13.63 386.5-14.15 387.56-14.93 388.61-15.7 389.08-16.6 389.56-17.5 389.56-18.4L389.56-18.4Q389.56-19.85 388.71-20.73 387.86-21.6 386.46-21.6L386.46-21.6Z" opacity="1" transform="matrix(1,0,0,1,0,0)" fill="#303030" class="undefined-text-1" data-fill-palette-color="secondary" id="text-1"></path></svg></g></svg></g></svg></g></svg></g><g transform="matrix(1,0,0,1,75.54432,0)"><svg viewBox="0 0 244.43135999999998 228.43133860606358" height="228.43133860606358" width="244.43135999999998"><g><svg xmlns="http://www.w3.org/2000/svg" viewBox="9.269000053405762 9.269000053405762 81.46200561523438 81.46199798583984" x="8" y="0" height="228.43133860606358" width="228.43135999999998" class="icon-icon-0" data-fill-palette-color="accent" id="icon-0"><path d="M51.392 49.888a1.764 1.764 0 0 0-2.784 0L39.731 62.542a1.7 1.7 0 0 0 1.392 2.677H58.877a1.7 1.7 0 0 0 1.392-2.677Zm-7 11.93L50 53.824l5.607 7.994Zm7-44.178a1.763 1.763 0 0 0-2.784 0L29.773 44.488a1.7 1.7 0 0 0 1.392 2.677h37.67a1.7 1.7 0 0 0 1.392-2.677ZM34.435 43.764L50 21.576 65.565 43.764ZM50 9.269A40.731 40.731 0 1 0 90.731 50 40.777 40.777 0 0 0 50 9.269ZM13.476 57.718A69.184 69.184 0 0 1 47.792 79.305a71.766 71.766 0 0 0-5.117 7.3A37.437 37.437 0 0 1 13.476 57.718ZM50 87.331c-1.232 0-2.448-0.064-3.65-0.181Q48.06 84.483 50 82q1.938 2.486 3.65 5.154C52.448 87.267 51.232 87.331 50 87.331Zm7.325-0.726a71.766 71.766 0 0 0-5.117-7.3A69.184 69.184 0 0 1 86.524 57.718 37.437 37.437 0 0 1 57.325 86.605ZM50 76.666A72.54 72.54 0 0 0 12.893 54.057 37.751 37.751 0 0 1 12.669 50a37.331 37.331 0 0 1 74.662 0 37.751 37.751 0 0 1-0.224 4.057A72.54 72.54 0 0 0 50 76.666Z" fill="#09adbb" data-fill-palette-color="accent"></path></svg></g></svg></g><g></g></svg></g><defs></defs></svg><rect width="231.80207773867363" height="247.2" fill="none" stroke="none" visibility="hidden"></rect></g></svg></g></svg>